STARTFONT 2.1
COMMENT
COMMENT Converted from OpenType font "MODENINE.TTF" by "otf2bdf 3.0".
COMMENT
FONT -FreeType-ModeNine-Medium-R-Normal--25-180-100-100-P-110-ISO10646-1
SIZE 18 100 100
FONTBOUNDINGBOX 15 23 0 -5
STARTPROPERTIES 19
FOUNDRY "FreeType"
FAMILY_NAME "ModeNine"
WEIGHT_NAME "Medium"
SLANT "R"
SETWIDTH_NAME "Normal"
ADD_STYLE_NAME ""
PIXEL_SIZE 25
POINT_SIZE 180
RESOLUTION_X 100
RESOLUTION_Y 100
SPACING "P"
AVERAGE_WIDTH 110
CHARSET_REGISTRY "ISO10646"
CHARSET_ENCODING "1"
FONT_ASCENT 20
FONT_DESCENT 5
COPYRIGHT "(C) 2001 Graham H Freeman. (C) 1998 Andrew C. Bul+hac?k. Freely distributable."
_OTF_FONTFILE "MODENINE.TTF"
_OTF_PSNAME "ModeNine"
ENDPROPERTIES
CHARS 101
STARTCHAR 0020
ENCODING 32
SWIDTH 600 0
DWIDTH 15 0
BBX 0 0 0 0
BITMAP
ENDCHAR
STARTCHAR 0021
ENCODING 33
SWIDTH 600 0
DWIDTH 15 0
BBX 2 18 8 0
BITMAP
C0
C0
C0
C0
C0
C0
C0
C0
C0
C0
C0
C0
C0
00
00
C0
C0
C0
ENDCHAR
STARTCHAR 0022
ENCODING 34
SWIDTH 600 0
DWIDTH 15 0
BBX 8 8 5 10
BITMAP
E7
E7
E7
E7
E7
E7
E7
E7
ENDCHAR
STARTCHAR 0023
ENCODING 35
SWIDTH 600 0
DWIDTH 15 0
BBX 12 18 3 0
BITMAP
39C0
39C0
39C0
39C0
39C0
FFF0
FFF0
FFF0
39C0
39C0
FFF0
FFF0
FFF0
39C0
39C0
39C0
39C0
39C0
ENDCHAR
STARTCHAR 0024
ENCODING 36
SWIDTH 600 0
DWIDTH 15 0
BBX 12 18 3 0
BITMAP
3F80
7FC0
FFE0
EEF0
CE70
CE40
CE00
EE00
7F80
1FC0
0FE0
0E70
0E70
CE70
EEF0
FFE0
7FC0
1F80
ENDCHAR
STARTCHAR 0025
ENCODING 37
SWIDTH 600 0
DWIDTH 15 0
BBX 12 18 3 0
BITMAP
6000
F000
F800
F030
7070
00E0
01C0
0380
0700
0E00
1C00
3800
7000
E0E0
C1F0
81F0
01F0
00E0
ENDCHAR
STARTCHAR 0026
ENCODING 38
SWIDTH 600 0
DWIDTH 15 0
BBX 12 17 3 0
BITMAP
3000
7C00
FC00
EE00
CE00
CE00
FC00
7C00
7C00
FE30
EF70
C7F0
C3E0
E3C0
FFE0
7F70
1C30
ENDCHAR
STARTCHAR 0027
ENCODING 39
SWIDTH 600 0
DWIDTH 15 0
BBX 2 8 8 10
BITMAP
C0
C0
C0
C0
C0
C0
C0
C0
ENDCHAR
STARTCHAR 0028
ENCODING 40
SWIDTH 600 0
DWIDTH 15 0
BBX 8 18 5 0
BITMAP
07
0F
1E
1C
38
78
F0
E0
E0
E0
E0
E0
70
78
3C
1E
0F
07
ENDCHAR
STARTCHAR 0029
ENCODING 41
SWIDTH 600 0
DWIDTH 15 0
BBX 8 18 5 0
BITMAP
C0
E0
F0
78
3C
1E
0E
06
06
07
06
0E
1E
3C
78
F0
E0
C0
ENDCHAR
STARTCHAR 002A
ENCODING 42
SWIDTH 600 0
DWIDTH 15 0
BBX 12 18 3 0
BITMAP
0E00
0E00
0E00
CE30
EE70
FEE0
7FC0
3F80
1F00
0F00
1F80
3FC0
7FE0
EEF0
CE70
8E30
0E00
0E00
ENDCHAR
STARTCHAR 002B
ENCODING 43
SWIDTH 600 0
DWIDTH 15 0
BBX 12 12 3 3
BITMAP
0E00
0E00
0E00
0E00
FFF0
FFF0
FFF0
0E00
0E00
0E00
0E00
0E00
ENDCHAR
STARTCHAR 002C
ENCODING 44
SWIDTH 600 0
DWIDTH 15 0
BBX 5 9 5 -3
BITMAP
38
38
38
38
38
78
F0
E0
C0
ENDCHAR
STARTCHAR 002D
ENCODING 45
SWIDTH 600 0
DWIDTH 15 0
BBX 12 2 3 8
BITMAP
FFF0
FFF0
ENDCHAR
STARTCHAR 002E
ENCODING 46
SWIDTH 600 0
DWIDTH 15 0
BBX 2 3 8 0
BITMAP
C0
C0
C0
ENDCHAR
STARTCHAR 002F
ENCODING 47
SWIDTH 600 0
DWIDTH 15 0
BBX 12 15 3 2
BITMAP
0020
0060
00F0
01F0
03E0
07C0
0F80
1F00
3E00
7C00
F800
F000
E000
C000
8000
ENDCHAR
STARTCHAR 0030
ENCODING 48
SWIDTH 600 0
DWIDTH 15 0
BBX 12 18 3 0
BITMAP
1F80
7FC0
FFE0
E0F0
C070
C070
C070
CE70
CE70
CE70
C070
C070
C070
C070
E0F0
FFE0
7FC0
1F80
ENDCHAR
STARTCHAR 0031
ENCODING 49
SWIDTH 600 0
DWIDTH 15 0
BBX 8 18 5 0
BITMAP
38
38
78
F8
F8
F8
38
38
38
38
38
38
38
38
38
FF
FF
FF
ENDCHAR
STARTCHAR 0032
ENCODING 50
SWIDTH 600 0
DWIDTH 15 0
BBX 12 18 3 0
BITMAP
3F80
7FC0
FFE0
E0F0
C070
0070
0070
1FE0
7FC0
FF80
E000
C000
C000
C000
C000
FFF0
FFF0
FFF0
ENDCHAR
STARTCHAR 0033
ENCODING 51
SWIDTH 600 0
DWIDTH 15 0
BBX 12 18 3 0
BITMAP
FFF0
FFF0
FFF0
0070
00F0
01E0
03C0
0780
0F00
1FC0
3FE0
0070
0070
C070
E0F0
FFE0
7FC0
1F80
ENDCHAR
STARTCHAR 0034
ENCODING 52
SWIDTH 600 0
DWIDTH 15 0
BBX 12 18 3 0
BITMAP
03C0
03C0
07C0
0FC0
1FC0
3DC0
79C0
F1C0
E1C0
C1C0
FFF0
FFF0
FFF0
01C0
01C0
01C0
01C0
01C0
ENDCHAR
STARTCHAR 0035
ENCODING 53
SWIDTH 600 0
DWIDTH 15 0
BBX 12 18 3 0
BITMAP
FFF0
FFF0
FFF0
C000
C000
FF80
FFC0
FFE0
00F0
0070
0070
0070
0070
C070
E0F0
FFE0
7FC0
1F80
ENDCHAR
STARTCHAR 0036
ENCODING 54
SWIDTH 600 0
DWIDTH 15 0
BBX 12 18 3 0
BITMAP
0FC0
1FC0
7FC0
7800
F000
E000
C000
C000
FF80
FFC0
C0E0
C070
C070
C070
E0F0
FFE0
7FC0
1F80
ENDCHAR
STARTCHAR 0037
ENCODING 55
SWIDTH 600 0
DWIDTH 15 0
BBX 12 18 3 0
BITMAP
FFF0
FFF0
FFF0
0070
0070
00E0
03C0
0780
0F00
1E00
1C00
3800
3800
3800
3800
3800
3800
3800
ENDCHAR
STARTCHAR 0038
ENCODING 56
SWIDTH 600 0
DWIDTH 15 0
BBX 12 18 3 0
BITMAP
1F80
7FC0
FFE0
E0F0
C070
C070
E070
FFE0
7FE0
7FE0
E0E0
C070
C070
C070
E0F0
FFE0
7FC0
1F80
ENDCHAR
STARTCHAR 0039
ENCODING 57
SWIDTH 600 0
DWIDTH 15 0
BBX 12 18 3 0
BITMAP
1F80
7FC0
FFE0
E0F0
C070
C070
E070
FFF0
7FF0
3FF0
0FF0
0070
0070
00E0
01E0
3FC0
3F80
3E00
ENDCHAR
STARTCHAR 003A
ENCODING 58
SWIDTH 600 0
DWIDTH 15 0
BBX 2 10 8 3
BITMAP
C0
C0
C0
00
00
00
00
C0
C0
C0
ENDCHAR
STARTCHAR 003B
ENCODING 59
SWIDTH 600 0
DWIDTH 15 0
BBX 5 16 5 -3
BITMAP
38
38
38
00
00
00
00
00
38
38
38
38
78
F0
E0
C0
ENDCHAR
STARTCHAR 003C
ENCODING 60
SWIDTH 600 0
DWIDTH 15 0
BBX 9 18 3 0
BITMAP
0100
0180
0380
0780
0F00
1E00
3C00
7800
F000
E000
7000
3C00
1E00
0F00
0780
0380
0180
0100
ENDCHAR
STARTCHAR 003D
ENCODING 61
SWIDTH 600 0
DWIDTH 15 0
BBX 12 10 3 3
BITMAP
FFF0
FFF0
FFF0
0000
0000
0000
0000
FFF0
FFF0
FFF0
ENDCHAR
STARTCHAR 003E
ENCODING 62
SWIDTH 600 0
DWIDTH 15 0
BBX 10 18 5 0
BITMAP
4000
6000
F000
F800
3C00
1C00
0E00
0700
0380
03C0
0780
0F00
1E00
3C00
7800
F000
6000
4000
ENDCHAR
STARTCHAR 003F
ENCODING 63
SWIDTH 600 0
DWIDTH 15 0
BBX 12 18 3 0
BITMAP
3F80
7FC0
FFE0
E0F0
C070
0070
0070
00E0
01E0
0380
0700
0600
0E00
0000
0000
0E00
0E00
0E00
ENDCHAR
STARTCHAR 0040
ENCODING 64
SWIDTH 600 0
DWIDTH 15 0
BBX 12 18 3 0
BITMAP
1F80
7FC0
FFE0
E0F0
C070
C3F0
C7F0
C7F0
C670
C670
C7F0
C7E0
C1C0
C000
E000
FFC0
7FC0
1FC0
ENDCHAR
STARTCHAR 0041
ENCODING 65
SWIDTH 600 0
DWIDTH 15 0
BBX 12 18 3 0
BITMAP
0E00
1F00
3F80
7BC0
F1E0
F0F0
E070
C070
C070
C070
FFF0
FFF0
FFF0
C070
C070
C070
C070
C070
ENDCHAR
STARTCHAR 0042
ENCODING 66
SWIDTH 600 0
DWIDTH 15 0
BBX 12 18 3 0
BITMAP
FF80
FFC0
FFE0
C0F0
C070
C070
C070
FFE0
FFE0
FFE0
C0E0
C070
C070
C070
C0F0
FFE0
FFC0
FF80
ENDCHAR
STARTCHAR 0043
ENCODING 67
SWIDTH 600 0
DWIDTH 15 0
BBX 12 18 3 0
BITMAP
1F80
7FC0
FFE0
E0F0
C070
C040
C000
C000
C000
C000
C000
C000
C000
C070
E0F0
FFE0
7FC0
1F80
ENDCHAR
STARTCHAR 0044
ENCODING 68
SWIDTH 600 0
DWIDTH 15 0
BBX 12 18 3 0
BITMAP
FF80
FFC0
FFE0
C0F0
C070
C070
C070
C070
C070
C070
C070
C070
C070
C070
C0F0
FFE0
FFC0
FF80
ENDCHAR
STARTCHAR 0045
ENCODING 69
SWIDTH 600 0
DWIDTH 15 0
BBX 12 18 3 0
BITMAP
FFF0
FFF0
FFF0
C000
C000
C000
C000
FFC0
FFC0
FFC0
C000
C000
C000
C000
C000
FFF0
FFF0
FFF0
ENDCHAR
STARTCHAR 0046
ENCODING 70
SWIDTH 600 0
DWIDTH 15 0
BBX 12 18 3 0
BITMAP
FFF0
FFF0
FFF0
C000
C000
C000
C000
FFC0
FFC0
FFC0
C000
C000
C000
C000
C000
C000
C000
C000
ENDCHAR
STARTCHAR 0047
ENCODING 71
SWIDTH 600 0
DWIDTH 15 0
BBX 12 18 3 0
BITMAP
1F80
7FC0
FFE0
E0F0
C070
C040
C000
C000
C000
C000
C1F0
C1F0
C1F0
C070
E070
FFF0
7FF0
1FF0
ENDCHAR
STARTCHAR 0048
ENCODING 72
SWIDTH 600 0
DWIDTH 15 0
BBX 12 18 3 0
BITMAP
C070
C070
C070
C070
C070
C070
C070
FFF0
FFF0
FFF0
C070
C070
C070
C070
C070
C070
C070
C070
ENDCHAR
STARTCHAR 0049
ENCODING 73
SWIDTH 600 0
DWIDTH 15 0
BBX 8 18 5 0
BITMAP
FF
FF
FF
38
38
38
38
38
38
38
38
38
38
38
38
FF
FF
FF
ENDCHAR
STARTCHAR 004A
ENCODING 74
SWIDTH 600 0
DWIDTH 15 0
BBX 12 18 3 0
BITMAP
0070
0070
0070
0070
0070
0070
0070
0070
0070
0070
0070
0070
0070
C070
E0F0
FFE0
7FC0
1F80
ENDCHAR
STARTCHAR 004B
ENCODING 75
SWIDTH 600 0
DWIDTH 15 0
BBX 12 18 3 0
BITMAP
C070
C0F0
C1E0
C3C0
C780
CF00
DE00
FC00
F800
F800
FC00
DE00
CF00
C780
C3C0
C1E0
C0F0
C070
ENDCHAR
STARTCHAR 004C
ENCODING 76
SWIDTH 600 0
DWIDTH 15 0
BBX 12 18 3 0
BITMAP
C000
C000
C000
C000
C000
C000
C000
C000
C000
C000
C000
C000
C000
C000
C000
FFF0
FFF0
FFF0
ENDCHAR
STARTCHAR 004D
ENCODING 77
SWIDTH 600 0
DWIDTH 15 0
BBX 12 18 3 0
BITMAP
8030
C070
E0F0
F1F0
FBF0
FFF0
DFF0
CF70
C670
C070
C070
C070
C070
C070
C070
C070
C070
C070
ENDCHAR
STARTCHAR 004E
ENCODING 78
SWIDTH 600 0
DWIDTH 15 0
BBX 12 18 3 0
BITMAP
C070
C070
C070
E070
F070
F870
FC70
FE70
DF70
CFF0
C7F0
C3F0
C1F0
C0F0
C070
C070
C070
C070
ENDCHAR
STARTCHAR 004F
ENCODING 79
SWIDTH 600 0
DWIDTH 15 0
BBX 12 18 3 0
BITMAP
1F80
7FC0
FFE0
E0F0
C070
C070
C070
C070
C070
C070
C070
C070
C070
C070
E0F0
FFE0
7FC0
1F80
ENDCHAR
STARTCHAR 0050
ENCODING 80
SWIDTH 600 0
DWIDTH 15 0
BBX 12 18 3 0
BITMAP
FF80
FFC0
FFE0
C0F0
C070
C070
C070
FFE0
FFE0
FF80
C000
C000
C000
C000
C000
C000
C000
C000
ENDCHAR
STARTCHAR 0051
ENCODING 81
SWIDTH 600 0
DWIDTH 15 0
BBX 12 18 3 0
BITMAP
1F80
7FC0
FFE0
E0F0
C070
C070
C070
C070
C070
C070
C070
C670
C770
C7F0
E3F0
FFE0
7FF0
1FF0
ENDCHAR
STARTCHAR 0052
ENCODING 82
SWIDTH 600 0
DWIDTH 15 0
BBX 12 18 3 0
BITMAP
FF80
FFC0
FFE0
C0F0
C070
C070
C070
FFE0
FFE0
FF80
FC00
DE00
CF00
C780
C3C0
C1E0
C0F0
C070
ENDCHAR
STARTCHAR 0053
ENCODING 83
SWIDTH 600 0
DWIDTH 15 0
BBX 12 18 3 0
BITMAP
3F80
7FC0
FFE0
E0F0
C070
C040
E000
FF80
7FC0
1FE0
00F0
0070
0070
C070
E0F0
FFE0
7FC0
1F80
ENDCHAR
STARTCHAR 0054
ENCODING 84
SWIDTH 600 0
DWIDTH 15 0
BBX 12 18 3 0
BITMAP
FFF0
FFF0
FFF0
0E00
0E00
0E00
0E00
0E00
0E00
0E00
0E00
0E00
0E00
0E00
0E00
0E00
0E00
0E00
ENDCHAR
STARTCHAR 0055
ENCODING 85
SWIDTH 600 0
DWIDTH 15 0
BBX 12 18 3 0
BITMAP
C070
C070
C070
C070
C070
C070
C070
C070
C070
C070
C070
C070
C070
C070
E0F0
FFE0
7FC0
1F80
ENDCHAR
STARTCHAR 0056
ENCODING 86
SWIDTH 600 0
DWIDTH 15 0
BBX 12 18 3 0
BITMAP
C070
C070
C070
C070
C070
C070
C070
C070
E0F0
E0E0
71E0
71C0
3BC0
3B80
1F80
1F00
0F00
0E00
ENDCHAR
STARTCHAR 0057
ENCODING 87
SWIDTH 600 0
DWIDTH 15 0
BBX 12 18 3 0
BITMAP
C070
C070
C070
C070
C070
C070
C070
C070
CE70
CE70
CE70
CE70
CE70
CE70
CE70
FFF0
FFE0
39C0
ENDCHAR
STARTCHAR 0058
ENCODING 88
SWIDTH 600 0
DWIDTH 15 0
BBX 12 18 3 0
BITMAP
C070
C070
C070
C070
E070
F0F0
F9E0
7FC0
3F80
1F80
3FC0
7BE0
F1F0
E0F0
C070
C070
C070
C070
ENDCHAR
STARTCHAR 0059
ENCODING 89
SWIDTH 600 0
DWIDTH 15 0
BBX 12 18 3 0
BITMAP
C070
C070
C070
C070
E070
F0F0
F9E0
7FC0
3F80
1F00
0E00
0E00
0E00
0E00
0E00
0E00
0E00
0E00
ENDCHAR
STARTCHAR 005A
ENCODING 90
SWIDTH 600 0
DWIDTH 15 0
BBX 12 18 3 0
BITMAP
FFF0
FFF0
FFF0
0070
00F0
01E0
03C0
0780
0F00
1E00
3C00
7800
F000
E000
C000
FFF0
FFF0
FFF0
ENDCHAR
STARTCHAR 005B
ENCODING 91
SWIDTH 600 0
DWIDTH 15 0
BBX 12 12 3 3
BITMAP
0700
0E00
1C00
3800
7FF0
FFF0
FFF0
7800
3C00
1E00
0F00
0700
ENDCHAR
STARTCHAR 005C
ENCODING 92
SWIDTH 600 0
DWIDTH 15 0
BBX 12 12 3 3
BITMAP
C000
E000
F000
7800
3C00
1E00
0F80
07C0
03E0
01F0
0070
0030
ENDCHAR
STARTCHAR 005D
ENCODING 93
SWIDTH 600 0
DWIDTH 15 0
BBX 12 12 3 3
BITMAP
0C00
0E00
0F00
0380
FFC0
FFE0
FFF0
03E0
07C0
0F00
0E00
0C00
ENDCHAR
STARTCHAR 005E
ENCODING 94
SWIDTH 600 0
DWIDTH 15 0
BBX 12 12 3 3
BITMAP
0400
0E00
1F00
3F80
7FC0
FFE0
EEF0
CE70
0E00
0E00
0E00
0E00
ENDCHAR
STARTCHAR 005F
ENCODING 95
SWIDTH 600 0
DWIDTH 15 0
BBX 12 3 3 -3
BITMAP
FFF0
FFF0
FFF0
ENDCHAR
STARTCHAR 0060
ENCODING 96
SWIDTH 600 0
DWIDTH 15 0
BBX 12 3 3 10
BITMAP
FFF0
FFF0
FFF0
ENDCHAR
STARTCHAR 0061
ENCODING 97
SWIDTH 600 0
DWIDTH 15 0
BBX 12 13 3 0
BITMAP
3F80
3FC0
3FE0
00F0
0070
3FF0
FFF0
FFF0
C070
C070
FFF0
FFF0
3FF0
ENDCHAR
STARTCHAR 0062
ENCODING 98
SWIDTH 600 0
DWIDTH 15 0
BBX 12 18 3 0
BITMAP
C000
C000
C000
C000
C000
FF80
FFC0
FFE0
C0F0
C070
C070
C070
C070
C070
C0F0
FFE0
FFC0
FF80
ENDCHAR
STARTCHAR 0063
ENCODING 99
SWIDTH 600 0
DWIDTH 15 0
BBX 12 13 3 0
BITMAP
1FF0
7FF0
FFF0
E000
C000
C000
C000
C000
C000
E000
FFF0
7FF0
1FF0
ENDCHAR
STARTCHAR 0064
ENCODING 100
SWIDTH 600 0
DWIDTH 15 0
BBX 12 18 3 0
BITMAP
0070
0070
0070
0070
0070
1FF0
7FF0
FFF0
E070
C070
C070
C070
C070
C070
E070
FFF0
7FF0
1FF0
ENDCHAR
STARTCHAR 0065
ENCODING 101
SWIDTH 600 0
DWIDTH 15 0
BBX 12 13 3 0
BITMAP
3F80
7FC0
FFE0
E0F0
C070
C070
FFF0
FFF0
C000
E000
FFC0
7FC0
1FC0
ENDCHAR
STARTCHAR 0066
ENCODING 102
SWIDTH 600 0
DWIDTH 15 0
BBX 8 18 5 0
BITMAP
07
0F
1F
1C
38
38
38
FF
FF
FF
38
38
38
38
38
38
38
38
ENDCHAR
STARTCHAR 0067
ENCODING 103
SWIDTH 600 0
DWIDTH 15 0
BBX 12 18 3 -5
BITMAP
1FF0
7FF0
FFF0
E070
C070
C070
C070
C070
C070
E070
FFF0
7FF0
1FF0
0070
0070
3FE0
3FC0
3F80
ENDCHAR
STARTCHAR 0068
ENCODING 104
SWIDTH 600 0
DWIDTH 15 0
BBX 12 18 3 0
BITMAP
C000
C000
C000
C000
C000
FF80
FFC0
FFE0
C0F0
C070
C070
C070
C070
C070
C070
C070
C070
C070
ENDCHAR
STARTCHAR 0069
ENCODING 105
SWIDTH 600 0
DWIDTH 15 0
BBX 8 18 5 0
BITMAP
38
38
38
00
00
F8
F8
F8
38
38
38
38
38
38
38
FF
FF
FF
ENDCHAR
STARTCHAR 006A
ENCODING 106
SWIDTH 600 0
DWIDTH 15 0
BBX 5 23 5 -5
BITMAP
38
38
38
00
00
38
38
38
38
38
38
38
38
38
38
38
38
38
38
38
F0
F0
C0
ENDCHAR
STARTCHAR 006B
ENCODING 107
SWIDTH 600 0
DWIDTH 15 0
BBX 10 18 5 0
BITMAP
E000
E000
E000
E000
E000
E1C0
E3C0
E780
EF00
FE00
FC00
F800
FC00
FE00
EF00
E780
E3C0
E1C0
ENDCHAR
STARTCHAR 006C
ENCODING 108
SWIDTH 600 0
DWIDTH 15 0
BBX 8 18 5 0
BITMAP
F8
F8
F8
38
38
38
38
38
38
38
38
38
38
38
38
FF
FF
FF
ENDCHAR
STARTCHAR 006D
ENCODING 109
SWIDTH 600 0
DWIDTH 15 0
BBX 12 13 3 0
BITMAP
F9C0
FFE0
FFF0
CE70
CE70
CE70
CE70
CE70
CE70
CE70
CE70
CE70
CE70
ENDCHAR
STARTCHAR 006E
ENCODING 110
SWIDTH 600 0
DWIDTH 15 0
BBX 12 13 3 0
BITMAP
FF80
FFC0
FFE0
C0F0
C070
C070
C070
C070
C070
C070
C070
C070
C070
ENDCHAR
STARTCHAR 006F
ENCODING 111
SWIDTH 600 0
DWIDTH 15 0
BBX 12 13 3 0
BITMAP
1F80
7FC0
FFE0
E0F0
C070
C070
C070
C070
C070
E0F0
FFE0
7FC0
1F80
ENDCHAR
STARTCHAR 0070
ENCODING 112
SWIDTH 600 0
DWIDTH 15 0
BBX 12 18 3 -5
BITMAP
FF80
FFC0
FFE0
C0F0
C070
C070
C070
C070
C070
C0F0
FFE0
FFC0
FF80
C000
C000
C000
C000
C000
ENDCHAR
STARTCHAR 0071
ENCODING 113
SWIDTH 600 0
DWIDTH 15 0
BBX 12 18 3 -5
BITMAP
1FF0
7FF0
FFF0
E070
C070
C070
C070
C070
C070
E070
FFF0
7FF0
1FF0
0070
0070
0070
0070
0070
ENDCHAR
STARTCHAR 0072
ENCODING 114
SWIDTH 600 0
DWIDTH 15 0
BBX 10 13 5 0
BITMAP
E7C0
EFC0
FFC0
FC00
F000
E000
E000
E000
E000
E000
E000
E000
E000
ENDCHAR
STARTCHAR 0073
ENCODING 115
SWIDTH 600 0
DWIDTH 15 0
BBX 12 13 3 0
BITMAP
3FF0
FFF0
FFF0
C000
C000
FFC0
FFE0
3FF0
0070
0070
FFF0
FFE0
FFC0
ENDCHAR
STARTCHAR 0074
ENCODING 116
SWIDTH 600 0
DWIDTH 15 0
BBX 8 18 5 0
BITMAP
38
38
38
38
38
FF
FF
FF
38
38
38
38
38
18
1C
1F
0F
03
ENDCHAR
STARTCHAR 0075
ENCODING 117
SWIDTH 600 0
DWIDTH 15 0
BBX 12 13 3 0
BITMAP
C070
C070
C070
C070
C070
C070
C070
C070
C070
E070
FFF0
7FF0
1FF0
ENDCHAR
STARTCHAR 0076
ENCODING 118
SWIDTH 600 0
DWIDTH 15 0
BBX 12 13 3 0
BITMAP
C070
C070
C070
E0F0
E0E0
71E0
71C0
3BC0
3B80
1F80
1F00
0F00
0E00
ENDCHAR
STARTCHAR 0077
ENCODING 119
SWIDTH 600 0
DWIDTH 15 0
BBX 12 13 3 0
BITMAP
C070
C070
C070
C070
C070
C070
CE70
CE70
CE70
CE70
FFF0
FFE0
3BC0
ENDCHAR
STARTCHAR 0078
ENCODING 120
SWIDTH 600 0
DWIDTH 15 0
BBX 12 13 3 0
BITMAP
C030
E070
F0F0
79E0
3FC0
1F80
0F00
1F80
3FC0
79E0
F0F0
E070
C030
ENDCHAR
STARTCHAR 0079
ENCODING 121
SWIDTH 600 0
DWIDTH 15 0
BBX 12 18 3 -5
BITMAP
C070
C070
C070
C070
C070
C070
C070
C070
C070
E070
FFF0
7FF0
1FF0
0070
00F0
3FE0
3FC0
3F80
ENDCHAR
STARTCHAR 007A
ENCODING 122
SWIDTH 600 0
DWIDTH 15 0
BBX 12 13 3 0
BITMAP
FFF0
FFF0
FFE0
01C0
0380
0700
0E00
1C00
3800
7000
FFF0
FFF0
FFF0
ENDCHAR
STARTCHAR 007B
ENCODING 123
SWIDTH 600 0
DWIDTH 15 0
BBX 8 18 5 0
BITMAP
FF
FF
FF
E0
E0
E0
E0
E0
E0
E0
E0
E0
E0
E0
E0
FF
FF
FF
ENDCHAR
STARTCHAR 007C
ENCODING 124
SWIDTH 600 0
DWIDTH 15 0
BBX 8 18 5 0
BITMAP
E7
E7
E7
E7
E7
E7
E7
E7
E7
E7
E7
E7
E7
E7
E7
E7
E7
E7
ENDCHAR
STARTCHAR 007D
ENCODING 125
SWIDTH 600 0
DWIDTH 15 0
BBX 8 18 5 0
BITMAP
FF
FF
FF
0F
0F
0F
0F
0F
0F
0F
0F
0F
0F
0F
0F
FF
FF
FF
ENDCHAR
STARTCHAR 00A0
ENCODING 160
SWIDTH 600 0
DWIDTH 15 0
BBX 0 0 0 0
BITMAP
ENDCHAR
STARTCHAR 00A3
ENCODING 163
SWIDTH 600 0
DWIDTH 15 0
BBX 12 21 3 -3
BITMAP
0780
0FC0
1FE0
3CF0
3870
3840
3800
3800
3800
3800
FE00
FE00
FE00
3800
3800
3800
3800
3800
FFF0
FFF0
FFF0
ENDCHAR
STARTCHAR 00BC
ENCODING 188
SWIDTH 600 0
DWIDTH 15 0
BBX 10 23 5 -5
BITMAP
E000
E000
E000
E000
E000
E000
E000
E000
E000
E000
E0C0
E1C0
E3C0
07C0
0FC0
1FC0
3DC0
39C0
3FC0
3FC0
3FC0
01C0
01C0
ENDCHAR
STARTCHAR 00BD
ENCODING 189
SWIDTH 600 0
DWIDTH 15 0
BBX 12 23 3 -5
BITMAP
C000
C000
C000
C000
C000
C000
C000
C000
C000
C000
CFC0
CFE0
CFF0
0070
0070
00E0
01E0
03C0
0780
0700
0FF0
0FF0
0FF0
ENDCHAR
STARTCHAR 00BE
ENCODING 190
SWIDTH 600 0
DWIDTH 15 0
BBX 12 23 3 -5
BITMAP
F800
FC00
FE00
0E00
0E00
FE00
FC00
FE00
0E00
0E00
FE30
FC70
F8F0
01F0
03F0
07F0
0F70
0E70
0FF0
0FF0
0FF0
0070
0070
ENDCHAR
STARTCHAR 00F7
ENCODING 247
SWIDTH 600 0
DWIDTH 15 0
BBX 12 12 3 3
BITMAP
0E00
0E00
0E00
0000
FFF0
FFF0
FFF0
0000
0000
0E00
0E00
0E00
ENDCHAR
STARTCHAR 2010
ENCODING 8208
SWIDTH 600 0
DWIDTH 15 0
BBX 12 2 3 8
BITMAP
FFF0
FFF0
ENDCHAR
ENDFONT
